inDegrees=no
num_controls=7
num_derivatives=13
num_iterations=154
num_multipliers=7
num_parameters=0
num_slacks=7
num_states=26
objective=4.412786
objective_accelerations=0.108415
objective_balance=0.035856
objective_effort=0.201897
objective_height=4.016146
objective_ligament=0.050472
solver_duration=1606.063646
status=Solve_Succeeded
success=true
DataType=double
version=3
OpenSimVersion=4.4-2022-07-23-0e9fedc
endheader
time	/jointset/ground_pelvis/pelvis_tilt/value	/jointset/ground_pelvis/pelvis_tx/value	/jointset/ground_pelvis/pelvis_ty/value	/jointset/hip_l/hip_flexion_l/value	/jointset/hip_l/hip_adduction_l/value	/jointset/hip_l/hip_rotation_l/value	/jointset/back/lumbar_extension/value	/jointset/patellofemoral_l/patellar_flexion_l/value	/jointset/knee_l/knee_flexion_l/value	/jointset/knee_l/knee_adduction_l/value	/jointset/knee_l/knee_rotation_l/value	/jointset/ankle_l/ankle_angle_l/value	/jointset/subtalar_l/subtalar_angle_l/value	/jointset/ground_pelvis/pelvis_tilt/speed	/jointset/ground_pelvis/pelvis_tx/speed	/jointset/ground_pelvis/pelvis_ty/speed	/jointset/hip_l/hip_flexion_l/speed	/jointset/hip_l/hip_adduction_l/speed	/jointset/hip_l/hip_rotation_l/speed	/jointset/back/lumbar_extension/speed	/jointset/patellofemoral_l/patellar_flexion_l/speed	/jointset/knee_l/knee_flexion_l/speed	/jointset/knee_l/knee_adduction_l/speed	/jointset/knee_l/knee_rotation_l/speed	/jointset/ankle_l/ankle_angle_l/speed	/jointset/subtalar_l/subtalar_angle_l/speed	/forceset/tau_hip_flexion_l	/forceset/tau_hip_adduction_l	/forceset/tau_hip_rotation_l	/forceset/tau_knee_flexion_l	/forceset/tau_ankle_angle_l	/forceset/tau_subtalar_angle_l	/forceset/tau_lumbar_extension	lambda_cid13_p0	lambda_cid13_p1	lambda_cid13_p2	lambda_cid13_p3	lambda_cid13_p4	lambda_cid13_p5	lambda_cid14_p0	/jointset/ground_pelvis/pelvis_tilt/accel	/jointset/ground_pelvis/pelvis_tx/accel	/jointset/ground_pelvis/pelvis_ty/accel	/jointset/hip_l/hip_flexion_l/accel	/jointset/hip_l/hip_adduction_l/accel	/jointset/hip_l/hip_rotation_l/accel	/jointset/back/lumbar_extension/accel	/jointset/patellofemoral_l/patellar_flexion_l/accel	/jointset/knee_l/knee_flexion_l/accel	/jointset/knee_l/knee_adduction_l/accel	/jointset/knee_l/knee_rotation_l/accel	/jointset/ankle_l/ankle_angle_l/accel	/jointset/subtalar_l/subtalar_angle_l/accel	gamma_cid13_p0	gamma_cid13_p1	gamma_cid13_p2	gamma_cid13_p3	gamma_cid13_p4	gamma_cid13_p5	gamma_cid14_p0
1.5	0.1949820267839235	0.07183408833488972	0.9311204455950443	0.09368350021967559	-0.3122397654384447	-0.2583932431909896	-0.7340662207146821	0.3711930049667574	0.3711930049667947	-0.1716211948053296	-0.1745301896133473	0.1110115982284004	0.02191753071241778	-0.1947669198697357	0.08980431464448652	0.07467974893698587	-0.4123271344091398	0.1177647677811316	-0.3504224859679956	0.849955129056811	-0.8982391732914425	-0.8982391732912189	0.000593984253911941	-3.584379353565529e-06	-0.3296723527141917	0.01552640928236396	-0.04891342782660141	0.01929742118929104	-0.003912395937584083	-0.1582338608474277	0.01316583552924928	0.02515863113182068	0.1874368111163374	-40.25236069512664	-7.951531789914006	5.465769852072644	3.14791959579491	-694.7353497772069	-80.6589487349418	-23.88670140377503	-0.3730146146544986	0.08108508825274979	-0.16156870051041	0.265971857987047	0.187836005486818	-0.0797688624325881	0.8941968153295679	-0.2710040539700125	-0.2710040539700058	-0.03865465997937019	0.002106744051684699	-0.1010248874585586	0.1439545366673944	9.991151724215491e-09	1.090150179098308e-07	-6.02740497272087e-08	8.563401642507258e-09	3.158952196214908e-08	7.983712030162606e-08	1.498595828415909e-08
1.51	0.1930162105568703	0.07273608086877253	0.9318590693861065	0.08957355820342015	-0.3110529551628693	-0.2619010623204843	-0.7255232715670854	0.3621979240359068	0.3621979240359355	-0.1716175086836723	-0.1745301725962888	0.1077101386303147	0.02207982611528932	-0.1983583519034254	0.09058278120014024	0.07303360714961959	-0.4096209260943093	0.1195839163721287	-0.3510967551083927	0.8585169523122984	-0.9006585609234311	-0.9006585609232587	0.0001426922213968101	5.863950796923184e-06	-0.3305720375825026	0.01693285213774682	-0.0460667130986997	0.01799723779671823	-0.004166118796507005	-0.1569280031633261	0.0154708490465996	0.02460561020321692	0.183871485650265	-39.48664481160939	-7.846830227251513	5.450681250065524	2.938729958973814	-693.7408212416723	-80.75472800282563	-23.88418486095392	-0.3465113196551692	0.07451598070719367	-0.1678348167689383	0.2789975731908306	0.1769472044711182	-0.05454990647753415	0.8195128581570927	-0.2096423766781642	-0.2096423766858341	-0.04843897538281447	0.0001779394331240482	-0.0773074300627805	0.1390098433415493	1.895551884529647e-08	1.08827343958256e-07	-8.185448450970864e-08	3.509817261905614e-09	5.172630401734037e-08	9.480278472508509e-08	1.846747324800853e-08
1.52	0.1910156192450956	0.07364551577650916	0.9325808921795113	0.08549188872130691	-0.3098483548176726	-0.2654142829347104	-0.716898236631433	0.3531822019769618	0.3531822019769831	-0.171618349982435	-0.1745300982835333	0.1044011087548366	0.02225619008338808	-0.2017219368142786	0.09129278941524301	0.07131954940549107	-0.4066726275810847	0.1213227817057282	-0.3515027829141596	0.8663722866677306	-0.9023673989100144	-0.902367398909893	-0.0003114998309309796	7.874758404261185e-06	-0.3311864081926302	0.01834012232784131	-0.04321999837079329	0.01669705440413431	-0.004419841655408385	-0.1556221454792267	0.01777586256394567	0.02405258927459885	0.1803061601842011	-38.72109652514417	-7.741582513013454	5.434915570810037	2.718978208933894	-692.7575137061312	-80.85743978812739	-23.87470807318158	-0.3274451900871786	0.06739342014255228	-0.1751518918628619	0.3143898976658803	0.1717793540072983	-0.02612059550656641	0.7528990353185823	-0.1288941248889212	-0.1288941248889202	-0.03923466394190602	0.0006192395430315487	-0.04396203582190917	0.1441200036097127	2.368349095486112e-08	1.090146465487329e-07	-9.343571390373793e-08	8.914922314989608e-10	6.290039614101425e-08	1.029535948397132e-07	2.035959485967413e-08
1.53	0.1889825679173695	0.07456169897418588	0.9332852524143529	0.08144087492388384	-0.3086267851993536	-0.2689302057075995	-0.7081982619196873	0.3441529467413267	0.344152946741363	-0.1716237536374979	-0.1745300216202904	0.1010873584100993	0.02244661333046712	-0.2048460194369262	0.0919313698717991	0.06954288318923046	-0.4034929393036316	0.122975862020449	-0.3516354442588716	0.8734956423705293	-0.9033628124049747	-0.9033628124050029	-0.0007695732254670612	7.358788356111956e-06	-0.331515470530767	0.01974315710114595	-0.04030823668838032	0.01534415430754697	-0.004686738532844947	-0.1544328231599515	0.02017917465067448	0.02347352424319961	0.1766839900050912	-37.9289771269325	-7.627381578126711	5.415101115206461	2.501982712144075	-691.8232093581024	-80.96144690638882	-23.85827569943274	-0.2985433064492422	0.06021848996983262	-0.1803530554234151	0.3253380379528702	0.1597788151792117	0.0001288305150694213	0.6730018411675501	-0.0667437243560782	-0.06674372437851901	-0.04913541402235518	-0.0004197092974838964	-0.0201463161266674	0.1381833091647284	2.391029336468971e-08	1.096003617151397e-07	-9.43927875725173e-08	8.606302606744569e-10	6.455163021245101e-08	1.038636222512086e-07	2.056298603464442e-08
